<svg width="32" height="38" viewBox="0 0 32 38" fill="none" xmlns="http://www.w3.org/2000/svg">
<path d="M13.6673 22.3337V25.667C11.0152 25.667 8.47161 26.7206 6.59625 28.5959C4.72089 30.4713 3.66732 33.0148 3.66732 35.667H0.333984C0.333984 32.1308 1.73874 28.7394 4.23923 26.2389C6.73971 23.7384 10.1311 22.3337 13.6673 22.3337ZM13.6673 20.667C8.14232 20.667 3.66732 16.192 3.66732 10.667C3.66732 5.14199 8.14232 0.666992 13.6673 0.666992C19.1923 0.666992 23.6673 5.14199 23.6673 10.667C23.6673 16.192 19.1923 20.667 13.6673 20.667ZM13.6673 17.3337C17.3507 17.3337 20.334 14.3503 20.334 10.667C20.334 6.98366 17.3507 4.00033 13.6673 4.00033C9.98398 4.00033 7.00065 6.98366 7.00065 10.667C7.00065 14.3503 9.98398 17.3337 13.6673 17.3337ZM23.6673 34.8337L18.769 37.4087L19.704 31.9553L15.7423 28.092L21.219 27.2953L23.6673 22.3337L26.1173 27.2953L31.5923 28.092L27.6307 31.9553L28.564 37.4087L23.6673 34.8337Z" fill="url(#paint0_linear)"/>
<defs>
<linearGradient id="paint0_linear" x1="22.2148" y1="1.71675" x2="3.33199" y2="33.3594" gradientUnits="userSpaceOnUse">
<stop stop-color="#8676FF"/>
<stop offset="1" stop-color="#7517F8"/>
</linearGradient>
</defs>
</svg>
