<svg width="20" height="10" viewBox="0 0 20 10" fill="none" xmlns="http://www.w3.org/2000/svg">
<path d="M13.7249 5.85678C13.4897 6.76407 12.96 7.56758 12.2187 8.14119C11.4775 8.7148 10.5668 9.02604 9.62952 9.02604C8.69226 9.02604 7.78153 8.7148 7.0403 8.14119C6.29907 7.56758 5.7693 6.76407 5.53415 5.85678H0.115234V3.7425H5.53415C5.7693 2.83521 6.29907 2.0317 7.0403 1.45809C7.78153 0.884476 8.69226 0.573242 9.62952 0.573242C10.5668 0.573242 11.4775 0.884476 12.2187 1.45809C12.96 2.0317 13.4897 2.83521 13.7249 3.7425H19.1438V5.85678H13.7249ZM9.62952 6.91393C10.1903 6.91393 10.728 6.69117 11.1245 6.29467C11.5211 5.89816 11.7438 5.36038 11.7438 4.79964C11.7438 4.2389 11.5211 3.70112 11.1245 3.30461C10.728 2.90811 10.1903 2.68535 9.62952 2.68535C9.06878 2.68535 8.531 2.90811 8.13449 3.30461C7.73799 3.70112 7.51523 4.2389 7.51523 4.79964C7.51523 5.36038 7.73799 5.89816 8.13449 6.29467C8.531 6.69117 9.06878 6.91393 9.62952 6.91393Z" fill="#5A5A89" fill-opacity="0.5"/>
</svg>
