<svg width="20" height="21" viewBox="0 0 20 21" fill="none" xmlns="http://www.w3.org/2000/svg">
<path d="M13.1419 3.68559H15.2561C15.8169 3.68559 16.3547 3.90834 16.7512 4.30485C17.1477 4.70135 17.3704 5.23913 17.3704 5.79987V14.4367C18.0761 14.6861 18.6708 15.1769 19.0496 15.8224C19.4283 16.4679 19.5666 17.2266 19.4401 17.9642C19.3136 18.7018 18.9304 19.371 18.3582 19.8534C17.786 20.3358 17.0617 20.6004 16.3133 20.6004C15.5649 20.6004 14.8406 20.3358 14.2684 19.8534C13.6962 19.371 13.313 18.7018 13.1865 17.9642C13.0599 17.2266 13.1983 16.4679 13.577 15.8224C13.9558 15.1769 14.5505 14.6861 15.2561 14.4367V5.79987H13.1419V8.9713L8.38471 4.74273L13.1419 0.51416V3.68559ZM2.57043 7.73445C1.86479 7.48506 1.27004 6.99424 0.891304 6.34874C0.512566 5.70324 0.374228 4.94462 0.500741 4.20698C0.627255 3.46935 1.01047 2.80019 1.58266 2.31778C2.15485 1.83537 2.87916 1.57079 3.62757 1.57079C4.37598 1.57079 5.10029 1.83537 5.67248 2.31778C6.24467 2.80019 6.62789 3.46935 6.7544 4.20698C6.88091 4.94462 6.74257 5.70324 6.36384 6.34874C5.9851 6.99424 5.39035 7.48506 4.68471 7.73445V14.4367C5.39035 14.6861 5.9851 15.1769 6.36384 15.8224C6.74257 16.4679 6.88091 17.2266 6.7544 17.9642C6.62789 18.7018 6.24467 19.371 5.67248 19.8534C5.10029 20.3358 4.37598 20.6004 3.62757 20.6004C2.87916 20.6004 2.15485 20.3358 1.58266 19.8534C1.01047 19.371 0.627255 18.7018 0.500741 17.9642C0.374228 17.2266 0.512566 16.4679 0.891304 15.8224C1.27004 15.1769 1.86479 14.6861 2.57043 14.4367V7.73445ZM3.62757 5.79987C3.90794 5.79987 4.17683 5.6885 4.37508 5.49024C4.57334 5.29199 4.68471 5.0231 4.68471 4.74273C4.68471 4.46236 4.57334 4.19347 4.37508 3.99522C4.17683 3.79697 3.90794 3.68559 3.62757 3.68559C3.3472 3.68559 3.07831 3.79697 2.88006 3.99522C2.6818 4.19347 2.57043 4.46236 2.57043 4.74273C2.57043 5.0231 2.6818 5.29199 2.88006 5.49024C3.07831 5.6885 3.3472 5.79987 3.62757 5.79987ZM3.62757 18.4856C3.90794 18.4856 4.17683 18.3742 4.37508 18.176C4.57334 17.9777 4.68471 17.7088 4.68471 17.4284C4.68471 17.1481 4.57334 16.8792 4.37508 16.6809C4.17683 16.4827 3.90794 16.3713 3.62757 16.3713C3.3472 16.3713 3.07831 16.4827 2.88006 16.6809C2.6818 16.8792 2.57043 17.1481 2.57043 17.4284C2.57043 17.7088 2.6818 17.9777 2.88006 18.176C3.07831 18.3742 3.3472 18.4856 3.62757 18.4856ZM16.3133 18.4856C16.5937 18.4856 16.8625 18.3742 17.0608 18.176C17.2591 17.9777 17.3704 17.7088 17.3704 17.4284C17.3704 17.1481 17.2591 16.8792 17.0608 16.6809C16.8625 16.4827 16.5937 16.3713 16.3133 16.3713C16.0329 16.3713 15.764 16.4827 15.5658 16.6809C15.3675 16.8792 15.2561 17.1481 15.2561 17.4284C15.2561 17.7088 15.3675 17.9777 15.5658 18.176C15.764 18.3742 16.0329 18.4856 16.3133 18.4856Z" fill="#5A5A89" fill-opacity="0.5"/>
</svg>
