<svg width="34" height="24" viewBox="0 0 34 24" fill="none" xmlns="http://www.w3.org/2000/svg">
<path d="M31.9997 6.66667H9.22301L7.29967 2.05001C7.0472 1.44191 6.61986 0.922466 6.07184 0.557511C5.52381 0.192556 4.87977 -0.00147658 4.22134 8.46097e-06H0.333008V3.33334H4.22301L12.128 22.3083C12.3863 22.9283 12.9947 23.3333 13.6663 23.3333H26.9997C27.6947 23.3333 28.3163 22.9017 28.5613 22.2533L33.5613 8.92001C33.655 8.66766 33.6863 8.39643 33.6527 8.12938C33.619 7.86232 33.5214 7.60734 33.3681 7.38612C33.2148 7.16489 33.0103 6.98395 32.7721 6.8587C32.5338 6.73344 32.2688 6.66757 31.9997 6.66667ZM20.333 20L15.333 15H18.6663V10H21.9997V15H25.333L20.333 20Z" fill="url(#paint0_linear)"/>
<defs>
<linearGradient id="paint0_linear" x1="23.666" y1="0.666666" x2="15.0672" y2="24.862" gradientUnits="userSpaceOnUse">
<stop stop-color="#8676FF"/>
<stop offset="1" stop-color="#7517F8"/>
</linearGradient>
</defs>
</svg>

