<svg width="34" height="34" viewBox="0 0 34 34" fill="none" xmlns="http://www.w3.org/2000/svg">
<path d="M17.0007 30.3335C20.5369 30.3335 23.9283 28.9287 26.4287 26.4283C28.9292 23.9278 30.334 20.5364 30.334 17.0002C30.334 13.4639 28.9292 10.0726 26.4287 7.57207C23.9283 5.07159 20.5369 3.66683 17.0007 3.66683C13.4644 3.66683 10.073 5.07159 7.57256 7.57207C5.07208 10.0726 3.66732 13.4639 3.66732 17.0002C3.66732 20.5364 5.07208 23.9278 7.57256 26.4283C10.073 28.9287 13.4644 30.3335 17.0007 30.3335ZM17.0007 33.6668C7.79565 33.6668 0.333984 26.2052 0.333984 17.0002C0.333984 7.79516 7.79565 0.333496 17.0007 0.333496C26.2057 0.333496 33.6673 7.79516 33.6673 17.0002C33.6673 26.2052 26.2057 33.6668 17.0007 33.6668ZM17.0007 23.6668C18.7688 23.6668 20.4645 22.9645 21.7147 21.7142C22.9649 20.464 23.6673 18.7683 23.6673 17.0002C23.6673 15.2321 22.9649 13.5364 21.7147 12.2861C20.4645 11.0359 18.7688 10.3335 17.0007 10.3335C15.2325 10.3335 13.5368 11.0359 12.2866 12.2861C11.0364 13.5364 10.334 15.2321 10.334 17.0002C10.334 18.7683 11.0364 20.464 12.2866 21.7142C13.5368 22.9645 15.2325 23.6668 17.0007 23.6668ZM17.0007 27.0002C14.3485 27.0002 11.8049 25.9466 9.92958 24.0712C8.05422 22.1959 7.00065 19.6523 7.00065 17.0002C7.00065 14.348 8.05422 11.8045 9.92958 9.9291C11.8049 8.05373 14.3485 7.00016 17.0007 7.00016C19.6528 7.00016 22.1964 8.05373 24.0717 9.9291C25.9471 11.8045 27.0007 14.348 27.0007 17.0002C27.0007 19.6523 25.9471 22.1959 24.0717 24.0712C22.1964 25.9466 19.6528 27.0002 17.0007 27.0002ZM17.0007 20.3335C16.1166 20.3335 15.2688 19.9823 14.6436 19.3572C14.0185 18.7321 13.6673 17.8842 13.6673 17.0002C13.6673 16.1161 14.0185 15.2683 14.6436 14.6431C15.2688 14.018 16.1166 13.6668 17.0007 13.6668C17.8847 13.6668 18.7326 14.018 19.3577 14.6431C19.9828 15.2683 20.334 16.1161 20.334 17.0002C20.334 17.8842 19.9828 18.7321 19.3577 19.3572C18.7326 19.9823 17.8847 20.3335 17.0007 20.3335Z" fill="url(#paint0_linear)"/>
<defs>
<linearGradient id="paint0_linear" x1="23.6673" y1="1.28588" x2="7.95303" y2="32.2383" gradientUnits="userSpaceOnUse">
<stop stop-color="#8676FF"/>
<stop offset="1" stop-color="#7517F8"/>
</linearGradient>
</defs>
</svg>

