<svg width="42" height="42" viewBox="0 0 42 42" fill="none" xmlns="http://www.w3.org/2000/svg">
<path fill-rule="evenodd" clip-rule="evenodd" d="M21.465 3.60313C21.1665 3.48294 20.8335 3.48294 20.535 3.60313L5.615 9.59944L11.625 12.0135L27.01 5.83134L21.465 3.60313ZM30.375 7.18534L14.99 13.3675L21 15.7816L36.385 9.59944L30.375 7.18534ZM38.5 11.4559L22.25 17.9872V37.8878L38.5 31.3565V11.4559ZM19.75 37.8904V17.9847L3.5 11.4559V31.359L19.75 37.8904ZM19.6075 1.26942C20.5014 0.910193 21.4986 0.910193 22.3925 1.26942L40.215 8.43384C40.4467 8.52715 40.6453 8.68804 40.7852 8.89578C40.9251 9.10352 40.9999 9.3486 41 9.59944V31.359C40.9997 31.8609 40.8497 32.3513 40.5694 32.7668C40.2891 33.1823 39.8914 33.5039 39.4275 33.6902L21.465 40.9099C21.1665 41.03 20.8335 41.03 20.535 40.9099L2.575 33.6902C2.11063 33.5043 1.71236 33.1829 1.43161 32.7673C1.15085 32.3518 1.00052 31.8612 1 31.359V9.59944C1.00006 9.3486 1.07486 9.10352 1.21477 8.89578C1.35468 8.68804 1.55328 8.52715 1.785 8.43384L19.6075 1.26942Z" fill="url(#paint0_linear)" stroke="url(#paint1_linear)"/>
<defs>
<linearGradient id="paint0_linear" x1="29" y1="2.14286" x2="10.1429" y2="39.2857" gradientUnits="userSpaceOnUse">
<stop stop-color="#8676FF"/>
<stop offset="1" stop-color="#7517F8"/>
</linearGradient>
<linearGradient id="paint1_linear" x1="29" y1="2.14286" x2="10.1429" y2="39.2857" gradientUnits="userSpaceOnUse">
<stop stop-color="#8676FF"/>
<stop offset="1" stop-color="#7517F8"/>
</linearGradient>
</defs>
</svg>
